<svg width="60" height="61" viewBox="0 0 60 61" fill="none" xmlns="http://www.w3.org/2000/svg">
<g clip-path="url(#clip0_18_4032)">
<path d="M30 60.58C46.5685 60.58 60 47.1485 60 30.58C60 14.0114 46.5685 0.579956 30 0.579956C13.4315 0.579956 0 14.0114 0 30.58C0 47.1485 13.4315 60.58 30 60.58Z" fill="#F26969"/>
<path d="M36.099 31.4219H22.999V29.9219H36.099V31.4219Z" fill="white"/>
<path d="M30.152 35.83L35.294 30.672L30.152 25.515L31.087 24.58L37.18 30.672L31.087 36.765L30.152 35.83Z" fill="white"/>
<path d="M31.087 36.9799L29.94 35.8299L35.082 30.6719L29.94 25.5149L31.087 24.3679L37.387 30.6679L31.087 36.9799ZM30.364 35.8299L31.087 36.5529L36.967 30.6729L31.087 24.7919L30.364 25.5149L35.506 30.6719L30.364 35.8299Z" fill="white"/>
</g>
<defs>
<clipPath id="clip0_18_4032">
<rect width="60" height="60" fill="white" transform="translate(0 0.579956)"/>
</clipPath>
</defs>
</svg>
