<svg width="60" height="60" viewBox="0 0 60 60" fill="none" xmlns="http://www.w3.org/2000/svg">
<g clip-path="url(#clip0_17_432)">
<path d="M30 60C46.5685 60 60 46.5685 60 30C60 13.4315 46.5685 0 30 0C13.4315 0 0 13.4315 0 30C0 46.5685 13.4315 60 30 60Z" fill="#F4C31E"/>
<path d="M36.099 30.842H22.999V29.342H36.099V30.842Z" fill="white"/>
<path d="M30.1519 35.25L35.2939 30.092L30.1519 24.935L31.0869 24L37.1799 30.092L31.0869 36.185L30.1519 35.25Z" fill="white"/>
<path d="M31.0869 36.4L29.9399 35.25L35.0819 30.092L29.9399 24.935L31.0869 23.788L37.3869 30.088L31.0869 36.4ZM30.3639 35.25L31.0869 35.973L36.9669 30.093L31.0869 24.212L30.3639 24.935L35.5059 30.092L30.3639 35.25Z" fill="white"/>
</g>
<defs>
<clipPath id="clip0_17_432">
<rect width="60" height="60" fill="white"/>
</clipPath>
</defs>
</svg>
