<svg width="502" height="500" viewBox="0 0 502 500" fill="none" xmlns="http://www.w3.org/2000/svg">
<path fill-rule="evenodd" clip-rule="evenodd" d="M242.535 0.278062C242.314 0.92465 233.262 57.3157 233.362 57.4255C233.494 57.5715 248.644 58.0335 248.782 57.8959C248.844 57.8346 249.154 55.5246 249.471 52.7626L250.048 47.7407H252.669H255.29L255.458 50.9116C255.551 52.6557 255.696 55.0094 255.78 56.1426L255.934 58.2027L263.481 58.4013C267.632 58.5103 271.079 58.55 271.14 58.489C271.239 58.3892 264.739 3.44974 264.388 1.42983L264.243 0.590292L256.08 0.412993C251.591 0.315573 246.735 0.161752 245.29 0.0710787C243.189 -0.0606136 242.636 -0.019055 242.535 0.278062ZM209.531 3.71124C200.892 5.29343 193.747 6.66595 193.651 6.76121C193.556 6.85647 193.932 9.43661 194.486 12.4952C195.299 16.9779 195.577 18.053 195.92 18.0406C196.154 18.032 198.108 17.6857 200.261 17.2715C202.414 16.857 204.197 16.5307 204.223 16.5464C204.271 16.5758 212.411 61.4081 212.411 61.6429C212.411 61.7147 212.662 61.7735 212.969 61.7735C213.64 61.7735 227.081 59.3396 227.234 59.1904C227.293 59.1326 225.499 48.9249 223.247 36.5061C220.995 24.0874 219.188 13.8918 219.23 13.8491C219.273 13.8067 221.189 13.4441 223.487 13.0436C225.786 12.6428 227.709 12.2788 227.762 12.2345C227.996 12.0362 225.799 0.787021 225.531 0.809689C225.369 0.823452 218.169 2.12931 209.531 3.71124ZM294.393 32.7847C290.116 48.0098 286.675 60.5254 286.747 60.5969C286.9 60.7499 302.855 65.2596 306.73 66.2454C310.313 67.1564 314.344 67.7364 315.676 67.5318C318.461 67.1038 320.633 65.2442 322.183 61.9586C323.416 59.3461 325.76 51.1488 326.133 48.1455C326.674 43.7902 325.79 41.6454 322.392 39.072L320.744 37.8244L322.537 37.6439C326.322 37.2631 327.682 36.4276 329.107 33.6057C330.846 30.1622 332.124 23.0714 331.515 20.2367C330.494 15.4766 327.278 12.5543 320.55 10.2735C318.244 9.4914 302.82 5.10264 302.379 5.10264C302.264 5.10264 298.671 17.5594 294.393 32.7847ZM170.901 12.6763C167.034 13.179 162.353 14.972 159.419 17.0748C154.673 20.4758 153.035 24.5764 154.209 30.1147C155.177 34.6808 156.762 38.4418 158.822 41.0654C161.091 43.9551 163.039 44.9908 169.615 46.8048C176.333 48.658 179.955 49.8877 180.808 50.6053C181.885 51.5112 182.819 53.1231 183.658 55.5227C184.844 58.9151 184.367 60.9998 182.317 61.3844C180.289 61.7646 179.831 61.1617 177.893 55.5667C177.147 53.4146 176.459 51.4513 176.363 51.2038C176.211 50.8101 175.394 51.0214 169.798 52.9029C166.283 54.0846 163.309 55.15 163.188 55.2707C162.909 55.5494 165.168 61.8045 166.514 64.481C167.716 66.8693 169.594 69.0573 171.301 70.0569C176.117 72.8783 184.486 72.1445 191.081 68.3228C193.505 66.9179 196.727 63.6731 197.717 61.6386C198.419 60.1983 198.503 59.7509 198.483 57.5907C198.45 54.0806 196.681 48.0791 194.544 44.2325C191.556 38.8518 188.986 37.3378 178.255 34.6373C175.137 33.8526 172.16 33.0292 171.64 32.8079C169.989 32.1052 168.885 30.4647 167.989 27.3856C167.372 25.2661 167.733 23.9033 169.082 23.2605C170.885 22.401 171.777 23.3504 173.254 27.7011C173.746 29.1497 174.229 30.4267 174.327 30.539C174.471 30.7033 187.183 26.6287 187.493 26.3191C187.694 26.1181 185.544 20.4518 184.513 18.4656C182.656 14.8883 180.983 13.5884 177.24 12.8158C175.03 12.3595 173.583 12.3276 170.901 12.6763ZM254.399 26.2867C254.633 29.8489 254.898 33.8261 254.989 35.1247L255.154 37.486H252.683C250.753 37.486 250.213 37.404 250.213 37.1106C250.213 36.3296 251.32 28.4405 252.432 21.2943L253.588 13.8731L253.782 16.8416C253.888 18.4743 254.166 22.7246 254.399 26.2867ZM316.005 19.3883C317.346 19.9968 317.715 20.5932 317.715 22.1554C317.715 24.6109 315.791 30.2715 314.674 31.1038C313.99 31.6133 313.803 31.6327 312.408 31.3404C311.571 31.165 310.835 30.9697 310.772 30.9065C310.708 30.8431 311.41 28.108 312.332 24.8284C314.172 18.2775 314.028 18.4907 316.005 19.3883ZM347.871 27.2998C339.334 43.8817 330.712 61.2775 330.146 63.0613C329.617 64.7293 329.543 65.4223 329.651 67.677C329.767 70.0755 329.879 70.534 330.823 72.4608C332.734 76.3614 337.484 80.3686 342.568 82.3699C347.874 84.4583 352.81 84.1374 356.85 81.441C358.853 80.1044 359.729 79.1083 361.426 76.2362C362.963 73.6361 381.707 36.905 381.707 36.494C381.707 36.1877 368.593 29.4533 368.4 29.66C368.331 29.7342 364.235 37.7491 359.298 47.4709C346.563 72.5515 346.554 72.568 345.194 72.568C344.05 72.568 343.366 71.8439 343.366 70.6322C343.366 69.4918 343.259 69.7088 359.338 38.1185L364.716 27.5519L357.978 24.1543L351.239 20.7568L347.871 27.2998ZM129.719 31.5051C125.217 34.0933 123.335 35.3128 123.405 35.597C123.492 35.9497 151.801 84.9435 152.077 85.2193C152.154 85.2957 164.608 78.2318 165.097 77.8346C165.175 77.7714 136.592 28.2953 136.305 27.9969C136.211 27.8986 133.247 29.4773 129.719 31.5051ZM310.066 40.4377C312.444 41.5169 312.48 42.1608 310.55 48.9432C308.758 55.2404 308.353 55.7783 305.638 55.4593C304.796 55.3605 304.05 55.2226 303.981 55.153C303.911 55.0834 304.808 51.6264 305.974 47.4706C307.6 41.6791 308.193 39.9161 308.517 39.9207C308.75 39.9239 309.446 40.1565 310.066 40.4377ZM104.813 46.0139C101.843 48.6002 99.3801 50.8117 99.3407 50.9283C99.1703 51.4303 112.288 70.4377 119.21 79.7193L122.027 83.4973L118.955 80.504C117.266 78.8576 110.911 72.6308 104.834 66.6666C98.7567 60.7024 93.6861 55.856 93.5663 55.897C93.1051 56.0546 81.9969 65.8562 81.9969 66.1056C81.9969 66.7627 95.4131 86.3732 101.095 94.0219L103.902 97.8L100.712 94.6769C98.9578 92.9589 92.8046 86.9176 87.0383 81.2513C81.2719 75.585 76.4596 70.9488 76.3437 70.9488C76.2279 70.9488 73.6877 73.0664 70.6987 75.6546L65.2644 80.3605L86.7496 99.9627C106.076 117.595 108.28 119.526 108.684 119.18C113.845 114.758 122.114 107.509 122.178 107.351C122.258 107.154 113.742 93.853 108.376 85.7912C107.042 83.7874 106.241 82.396 106.597 82.6991C106.952 83.0021 108.397 84.2807 109.808 85.5405C114.997 90.1742 121.305 95.5348 126.843 100.019L128.893 101.678L135.889 95.5793C139.736 92.2249 142.872 89.3458 142.857 89.1814C142.835 88.9396 110.936 42.1033 110.376 41.4902C110.286 41.392 107.783 43.4278 104.813 46.0139ZM378.197 68.673C368.47 81.0421 360.511 91.3166 360.511 91.5052C360.511 91.6938 364.035 94.618 368.342 98.004C372.648 101.39 376.856 104.699 377.693 105.358L379.214 106.556L382.756 102.046C384.703 99.5646 386.293 97.4729 386.288 97.3976C386.281 97.2897 382.873 94.566 379.646 92.0884C379.3 91.8226 381.432 88.9839 393.431 73.7378C401.238 63.818 407.627 55.6228 407.627 55.5268C407.628 55.398 398.41 48.0527 396.153 46.3836C395.996 46.2678 388.44 55.6474 378.197 68.673ZM404.324 87.3091C393.889 97.3463 384.571 106.325 383.615 107.263L381.879 108.967L387.801 115.105C391.058 118.48 395.134 122.705 396.859 124.492L399.996 127.744L404.015 123.872C406.225 121.742 408.075 119.889 408.126 119.752C408.177 119.616 406.567 117.807 404.548 115.733C402.53 113.659 400.878 111.871 400.878 111.76C400.878 111.649 402.893 109.628 405.355 107.269L409.832 102.98L412.987 106.302C415.787 109.252 416.202 109.592 416.678 109.33C416.972 109.168 418.791 107.448 420.719 105.51L424.224 101.984L421.929 99.6224C420.666 98.3232 419.231 96.8193 418.739 96.2801L417.844 95.3L421.535 91.6925C423.565 89.7085 425.332 88.0461 425.461 87.9986C425.591 87.9511 427.235 89.4988 429.115 91.438L432.533 94.9637L436.695 91.0105C438.984 88.8363 440.822 86.9731 440.78 86.8703C440.635 86.5138 423.698 69.0598 423.497 69.0598C423.386 69.0598 414.758 77.2719 404.324 87.3091ZM240.222 69.7738C239.702 69.8221 237.576 69.9921 235.497 70.1516C230.886 70.5051 223.17 71.5252 218.158 72.4438C169.881 81.2931 127.173 109.515 99.9506 150.558C82.1754 177.357 72.1875 207.087 70.0895 239.442C69.6831 245.705 69.924 262.005 70.5064 267.678C72.903 291.021 78.6358 310.984 88.7952 331.365C100.108 354.059 115.617 373.662 135.055 389.837C162.487 412.664 195.496 426.721 230.907 430.657C245.635 432.295 261.687 432.054 276.538 429.972C309.045 425.417 340.167 411.762 365.642 390.875C374.67 383.472 383.939 374.21 391.301 365.232C423.299 326.215 437.461 275.511 430.419 225.174C421.468 161.19 378.411 106.43 318.12 82.3488C300.716 75.3977 282.526 71.2575 263.308 69.8739C259.915 69.6294 242.58 69.5544 240.222 69.7738ZM262.768 78.2396C316.762 82.1302 365.008 110.12 394.865 154.876C418.647 190.525 428.197 233.347 421.928 276.23C418.052 302.742 407.541 328.773 391.827 350.773C364.642 388.834 323.549 414.226 277.619 421.345C237.633 427.543 196.681 419.577 162.19 398.893C117.448 372.062 87.2445 326.652 79.8487 275.099C78.574 266.213 78.3747 262.935 78.3656 250.676C78.3561 238.094 78.5551 234.998 80.004 225.174C84.4208 195.226 97.0059 166.328 115.849 142.867C121.58 135.732 131.377 125.514 137.619 120.161C167.037 94.9362 201.879 80.6892 240.357 78.1514C243.686 77.932 259.352 77.9935 262.768 78.2396ZM253.68 91.734C253.136 92.0209 252.437 92.5787 252.126 92.9735C250.806 94.651 250.806 94.6677 251.138 116.96C251.308 128.389 251.358 138.161 251.25 138.677C251.003 139.849 250.398 140.303 249.081 140.303C247.035 140.303 247.084 140.547 246.882 129.509C246.783 124.117 246.702 115.986 246.702 111.441C246.702 103.403 246.686 103.144 246.095 101.988C245.012 99.8706 243.136 99.0591 240.533 99.5827C238.745 99.9424 237.128 101.299 236.671 102.822C236.433 103.618 236.427 108.298 236.648 122.188C236.942 140.618 236.899 142.054 236.012 143.407C235.064 144.853 232.966 144.439 232.028 142.621C231.509 141.615 231.478 140.943 231.362 128.379L231.24 115.192L229.913 113.999C227.728 112.035 225.522 112.121 222.979 114.268L222.072 115.034L222.27 145.007C222.454 172.941 222.501 175.115 222.968 176.957C223.724 179.935 224.664 181.454 227.45 184.202C228.83 185.563 230.094 187.02 230.26 187.44C230.476 187.989 230.547 197.676 230.514 221.911L230.467 255.619L229.768 256.183C226.983 258.434 224.752 259.94 223.482 260.428C218.315 262.414 212.299 260.335 205.615 254.253C191.85 241.729 175.645 242.668 157.153 257.062C153.467 259.932 152.693 261.182 153.137 263.549C153.38 264.845 154.964 266.434 156.459 266.882C158.134 267.383 159.306 266.922 162.245 264.605C168.547 259.635 174.689 256.357 179.932 255.165C182.364 254.612 186.864 254.598 189.145 255.135C192.79 255.994 196.195 257.992 200.396 261.737C204.605 265.49 209.066 268.09 213.626 269.449C216.692 270.362 221.477 270.501 224.292 269.759C227.077 269.025 230.661 267.1 233.472 264.83C246.768 254.09 255.104 253.944 268.751 264.212C272.202 266.808 275.771 268.718 278.564 269.463C281.349 270.205 286.119 270.095 289.455 269.21C294.525 267.867 300.414 264.531 306.78 259.399C310.651 256.276 311.092 255.982 312.855 255.337C319.344 252.963 327.644 256.143 341.044 266.138C344.975 269.07 345.911 269.408 347.897 268.614C350.069 267.746 351.228 265.499 350.642 263.292C350.244 261.793 348.856 260.494 343.744 256.841C328.242 245.763 317.101 242.853 307.906 247.481C305.801 248.54 304.621 249.355 301.919 251.615C296.926 255.792 292.223 258.728 288.501 259.992C285.515 261.006 281.94 261.065 279.562 260.141C277.893 259.493 274.441 257.307 273.574 256.35C273.078 255.801 273.006 254.253 272.056 223.61L271.059 191.446L272.179 190.522C278.147 185.599 284.155 176.378 288.374 165.67C294.811 149.329 300.434 134.878 300.434 134.675C300.434 134.241 297.11 133.497 295.179 133.499C291.762 133.502 289.16 134.796 286.244 137.94C284.406 139.923 283.113 141.977 282.172 144.411C279.813 150.511 277.305 153.297 271.652 156.097C266.46 158.669 263.192 161.621 259.652 166.934L257.708 169.853L257.887 168.418C258.162 166.214 259.543 162.725 261.042 160.442C263.428 156.81 266.846 153.81 270.757 151.917C272.827 150.915 274.328 149.526 275.215 147.794C276.609 145.071 276.631 144.708 276.836 121.392L277.027 99.6477L275.973 98.4789C274.608 96.9669 272.658 96.0521 270.79 96.0486C268.27 96.044 266.613 97.3391 265.934 99.8453C265.768 100.459 265.746 107.542 265.874 119.275C266.021 132.709 265.993 137.994 265.772 138.674C265.108 140.717 263.02 140.797 261.983 138.819C261.427 137.756 261.416 137.408 261.283 116.138C261.153 95.3985 261.127 94.5058 260.628 93.745C259.898 92.6319 259.173 92.0843 257.792 91.6042C256.212 91.0545 254.887 91.0964 253.68 91.734ZM46.6665 105.897L40.3934 114.688L42.497 116.66C55.4893 128.84 82.9452 154.333 83.0616 154.323C83.2111 154.311 91.7802 142.339 91.9316 141.93C91.9751 141.813 90.3956 140.345 88.4215 138.669C86.4472 136.992 84.6803 135.486 84.495 135.322C84.2323 135.089 84.4899 134.562 85.6601 132.94C86.4866 131.795 87.2275 130.858 87.3069 130.858C87.386 130.858 89.3935 132.025 91.7677 133.452C94.1419 134.879 96.1824 135.941 96.3017 135.813C96.7748 135.307 104.948 123.75 104.948 123.588C104.948 123.413 53.8987 97.3256 53.2766 97.1831C53.0911 97.1404 50.1164 101.062 46.6665 105.897ZM426.124 114.304C413.352 123.427 402.799 130.994 402.671 131.119C402.459 131.329 416.163 150.828 416.524 150.828C416.611 150.828 418.685 149.39 421.133 147.634C423.839 145.692 425.571 144.273 425.55 144.016C425.532 143.782 424.469 142.133 423.188 140.351C421.907 138.568 420.858 136.999 420.858 136.865C420.858 136.73 429.242 130.635 439.489 123.321C449.736 116.007 458.12 109.978 458.12 109.923C458.12 109.788 450.02 98.4228 449.642 98.028C449.42 97.7959 443.429 101.942 426.124 114.304ZM65.9314 117.825C69.4955 119.902 73.7786 122.363 75.4492 123.295C77.12 124.226 78.4817 125.064 78.4757 125.157C78.4695 125.25 77.8285 126.194 77.0512 127.255L75.6377 129.185L72.5396 126.482C69.931 124.206 65.2242 119.903 59.3615 114.435C58.6684 113.789 58.4049 113.438 58.7761 113.655C59.1474 113.872 62.3672 115.749 65.9314 117.825ZM443.87 141.094C429.87 148.186 418.345 154.059 418.261 154.144C418.176 154.229 420.746 159.526 423.973 165.915L429.839 177.532L434.934 174.948C437.736 173.527 440.029 172.253 440.029 172.118C440.029 171.982 438.996 169.809 437.734 167.289C436.472 164.769 435.439 162.614 435.439 162.499C435.439 162.385 437.929 161.048 440.973 159.529L446.507 156.767L448.535 160.814C449.65 163.039 450.685 164.861 450.834 164.861C451.059 164.861 460.235 160.375 460.498 160.136C460.544 160.095 459.664 158.228 458.541 155.987C457.418 153.747 456.5 151.852 456.5 151.777C456.5 151.702 458.663 150.558 461.308 149.234L466.117 146.829L468.327 151.257C469.543 153.693 470.629 155.683 470.741 155.681C471.345 155.668 480.665 150.574 480.665 150.257C480.665 149.75 469.762 128.155 469.518 128.179C469.412 128.189 457.87 134.001 443.87 141.094ZM22.5927 147.864C20.9163 151.577 19.5989 154.67 19.6656 154.736C20.0965 155.167 72.1383 178.327 72.2963 178.159C72.6983 177.731 82.0226 156.707 81.9316 156.434C81.8614 156.223 71.9828 151.637 71.5986 151.637C71.5611 151.637 70.7078 153.459 69.7026 155.685C68.6973 157.912 67.7866 159.733 67.6789 159.733C67.5711 159.733 58.1589 155.544 46.7626 150.423C35.3666 145.302 25.9522 141.113 25.8418 141.113C25.7313 141.113 24.2692 144.151 22.5927 147.864ZM459.474 173.549C444.255 177.844 431.761 181.4 431.709 181.452C431.503 181.658 435.022 193.466 435.288 193.463C435.445 193.462 440.914 191.947 447.44 190.098C453.966 188.249 459.341 186.77 459.383 186.813C459.426 186.856 454.43 190.074 448.282 193.965L437.102 201.04L437.622 202.853C437.907 203.85 438.707 206.669 439.4 209.118C440.092 211.567 440.687 213.609 440.721 213.655C440.774 213.727 493.125 199.066 495.542 198.303L496.378 198.039L494.685 192.085C493.754 188.81 492.947 186.086 492.892 186.031C492.836 185.975 487.633 187.386 481.328 189.166C475.023 190.945 469.561 192.471 469.19 192.555C468.819 192.64 473.436 189.42 479.45 185.399C485.465 181.378 490.421 177.928 490.463 177.73C490.531 177.421 487.413 165.962 487.218 165.799C487.178 165.766 474.693 169.254 459.474 173.549ZM12.3251 174.238C10.367 180.816 6.78452 193.907 6.90872 194.03C7.23462 194.354 60.1499 217.01 60.2787 216.881C60.4245 216.736 64.4479 202.537 64.4439 202.183C64.4423 202.064 62.6502 201.307 60.4613 200.501C58.272 199.695 56.1017 198.88 55.6381 198.69L54.7948 198.345L55.4844 195.905C55.9937 194.104 56.2902 193.466 56.6171 193.466C56.8607 193.466 59.1169 193.882 61.6307 194.39C64.1444 194.898 66.2829 195.232 66.3828 195.132C66.4825 195.032 67.4731 191.732 68.5845 187.799L70.6047 180.647L69.8881 180.451C69.0783 180.23 14.1474 173.226 13.2229 173.226C12.7671 173.226 12.5552 173.465 12.3251 174.238ZM30.1552 188.045C33.1995 188.624 37.9989 189.489 40.8205 189.967C43.6421 190.446 45.988 190.869 46.0336 190.908C46.2264 191.071 44.8736 195.625 44.6322 195.625C44.045 195.625 24.893 187.709 23.6841 186.966C23.3777 186.778 23.4457 186.748 23.9449 186.852C24.3162 186.929 27.1108 187.466 30.1552 188.045ZM480.26 216.323C479.592 216.376 474.246 216.785 468.38 217.233C453.544 218.367 451.694 218.678 448.423 220.594C445.293 222.428 442.64 226.297 441.905 230.098C441.472 232.337 441.705 235.597 442.432 237.493C443.131 239.315 444.761 241.245 446.422 242.218L447.63 242.926L445.654 243.779L443.678 244.633L443.751 245.698C443.897 247.863 444.412 254.05 444.447 254.069C444.533 254.115 475.247 251.729 475.304 251.672C475.338 251.638 475.072 247.787 474.712 243.115C474.353 238.442 474.056 234.511 474.054 234.379C474.05 234.154 472.111 234.233 467.099 234.661L465.144 234.829L465.312 236.262C465.516 237.992 465.905 237.849 459.875 238.258C454.001 238.657 452.431 238.357 451.895 236.735C451.394 235.218 451.932 234.31 453.629 233.803C455.097 233.365 484.489 230.977 488.416 230.977C490.816 230.977 491.505 231.229 491.895 232.254C492.303 233.326 491.943 234.433 491.035 234.903C490.268 235.299 484.063 236.091 481.61 236.105C479.501 236.117 479.573 235.795 480.09 242.894C480.342 246.358 480.619 249.663 480.704 250.239L480.86 251.286L483.463 251.096C493.056 250.399 497.203 248.305 499.937 242.781C501.517 239.588 501.966 237.109 501.781 232.596C501.541 226.76 500.17 223.294 496.756 219.892C494.683 217.828 492.665 216.747 490.215 216.393C488.586 216.158 482.891 216.118 480.26 216.323ZM11.0523 217.353C8.95593 217.808 7.04616 218.83 5.47065 220.338C3.5058 222.22 2.38742 224.883 1.68324 229.357C1.28767 231.87 -0.158767 249.344 0.0143093 249.517C0.0955821 249.598 56.1975 253.915 57.1696 253.915C57.5433 253.915 57.7028 252.557 58.3671 243.727C59.6507 226.664 59.4682 224.077 56.7924 221.402C54.4949 219.106 51.7524 218.388 42.9441 217.774C38.0923 217.435 35.4079 217.694 33.2681 218.706C31.5268 219.529 30.4892 220.748 29.2112 223.47C28.6758 224.611 28.2805 225.2 28.2748 224.865C28.2694 224.547 28.0167 223.483 27.7129 222.5C26.7547 219.399 25.0018 217.993 21.2619 217.327C18.6633 216.863 13.2431 216.877 11.0523 217.353ZM17.5997 230.978C21.2243 231.324 22.7872 231.719 23.2742 232.414C23.5248 232.771 23.6749 233.618 23.6749 234.673V236.36L22.9324 236.24C22.5239 236.175 20.3066 235.992 18.0047 235.834C15.7029 235.677 13.1754 235.476 12.3877 235.388C10.7955 235.211 10.9032 235.49 11.413 232.856C11.6201 231.787 12.8003 231.042 14.7646 230.741C14.8389 230.73 16.1147 230.836 17.5997 230.978ZM42.7832 232.882C44.457 233.039 46.2796 233.321 46.8334 233.509C48.0832 233.932 48.7847 235.181 48.7852 236.984L48.7858 238.269L47.7733 238.133C47.2165 238.058 44.1484 237.812 40.9555 237.586C37.7627 237.361 34.6217 237.108 33.9752 237.024L32.8002 236.872L32.9889 235.615C33.2003 234.205 33.7503 232.984 34.2671 232.776C34.8784 232.53 39.6606 232.59 42.7832 232.882ZM314.61 264.451C310.21 264.908 307.126 266.367 302.281 270.286C291.01 279.403 284.578 281.578 278.122 278.455C277.432 278.12 275.882 277.099 274.678 276.184C265.625 269.306 258.933 266.591 251.06 266.603C243.468 266.614 237.293 269.213 228.612 276.048C224.852 279.009 222.971 279.888 220.073 280.04C215.582 280.276 211.061 278.112 205.49 273.06C192.057 260.878 176.272 261.616 158.114 275.275C153.453 278.781 152.664 279.919 153.138 282.444C153.392 283.8 155.239 285.646 156.596 285.9C158.358 286.231 159.26 285.853 162.207 283.551C170.53 277.048 177.245 273.982 183.79 273.695C189.971 273.424 194.37 275.282 200.531 280.764C204.759 284.528 209.438 287.232 213.901 288.494C216.762 289.302 221.623 289.366 224.488 288.632C226.791 288.042 229.883 286.517 231.897 284.978C232.689 284.373 234.613 282.9 236.172 281.706C242.547 276.822 248.501 274.9 254.208 275.885C258.813 276.679 262.892 278.707 268.722 283.102C273.892 287 277.63 288.609 282.207 288.909C289.352 289.378 297.391 285.945 306.455 278.555C311.663 274.309 313.219 273.598 317.31 273.594C323.29 273.588 329.825 276.771 341.273 285.268C343.221 286.714 344.811 287.691 345.391 287.8C348.571 288.397 351.49 285.345 350.665 282.286C350.25 280.742 349.649 280.122 345.831 277.294C338.411 271.798 331.057 267.572 326.085 265.948C322.124 264.654 317.925 264.106 314.61 264.451ZM314.257 284.416C309.978 285.003 306.703 286.574 302.436 290.089C294.428 296.685 288.498 299.767 283.774 299.787C280.606 299.8 278.19 298.758 273.703 295.442C267.084 290.551 262.229 288.152 256.592 286.988C254.04 286.462 248.765 286.441 246.119 286.947C240.531 288.016 234.593 291.108 228.253 296.249C225.567 298.428 224.565 299 222.272 299.666C217.655 301.008 211.895 298.783 205.796 293.303C199.352 287.513 193.367 284.805 186.284 284.475C177.258 284.054 167.999 287.66 157.54 295.668C153.433 298.813 152.679 299.969 153.138 302.414C153.421 303.922 155.237 305.624 156.816 305.861C158.498 306.113 159.375 305.696 162.999 302.919C168.046 299.051 172.456 296.515 176.77 294.999C180.078 293.836 182.415 293.489 185.844 293.65C190.9 293.887 194.609 295.592 199.645 299.993C204.751 304.454 209.474 307.252 213.978 308.485C217.066 309.33 222.074 309.321 224.832 308.465C227.837 307.532 230.554 306.01 233.877 303.396C241.196 297.64 245.662 295.651 251.293 295.642C256.915 295.632 261.825 297.774 269.391 303.54C272.23 305.704 275.968 307.672 278.409 308.288C286.8 310.406 295.892 307.153 307.05 298.041C308.832 296.585 311.019 295.053 311.91 294.636C318.536 291.535 327.042 294.567 341.018 305.014C343.216 306.657 344.823 307.664 345.431 307.777C348.497 308.352 351.471 305.237 350.673 302.287C350.254 300.736 349.788 300.237 346.307 297.61C333.186 287.708 322.458 283.291 314.257 284.416ZM31.2336 287.899C29.0632 288.559 26.6899 290.562 25.6279 292.629C24.627 294.578 24.4688 297.956 25.278 300.101C26.0375 302.114 27.569 303.803 29.6635 304.938C31.2476 305.797 31.5449 305.863 33.8003 305.863C35.8542 305.863 36.4601 305.755 37.7154 305.163C39.6093 304.27 41.3867 302.494 42.2802 300.601C42.8742 299.342 42.9798 298.748 42.9752 296.688C42.9687 293.736 42.3642 292.277 40.2827 290.185C38.5036 288.398 36.5633 287.638 33.8575 287.671C32.7867 287.683 31.6056 287.786 31.2336 287.899ZM462.98 287.9C461.595 288.322 460.111 289.257 459.026 290.391C454.592 295.022 455.981 302.338 461.841 305.225C462.884 305.739 463.554 305.853 465.545 305.858C467.606 305.862 468.201 305.757 469.46 305.163C470.277 304.778 471.48 303.928 472.135 303.274C472.789 302.62 473.639 301.417 474.025 300.601C474.617 299.346 474.725 298.741 474.725 296.688C474.725 294.434 474.659 294.136 473.8 292.553C472.025 289.282 469.246 287.627 465.602 287.671C464.531 287.683 463.351 287.786 462.98 287.9ZM157.501 325.454C155.573 325.846 152.978 327.102 151.684 328.272C149.267 330.454 148.429 333.054 148.423 338.392C148.419 342.253 148.803 344.118 150.106 346.561C151.114 348.451 152.518 349.69 157.331 352.934C162.601 356.486 163.818 357.489 164.36 358.73C165.445 361.209 165.36 365.462 164.203 366.618C163.423 367.398 162.219 367.45 161.342 366.741C160.729 366.246 160.699 366.053 160.57 361.681L160.435 357.137L154.562 357.064L148.689 356.991V359.945C148.689 366.205 149.532 369.259 151.904 371.594C154.616 374.264 157.988 375.43 163 375.43C168.063 375.43 171.598 374.279 174.265 371.762C176.464 369.686 176.846 368.424 176.977 362.804C177.093 357.795 176.757 355.308 175.65 352.987C174.745 351.09 171.828 348.411 167.822 345.798C161.345 341.571 161.44 341.645 160.824 340.374C160.338 339.37 160.26 338.805 160.34 336.867C160.428 334.708 160.486 334.512 161.215 333.885C161.797 333.385 162.175 333.258 162.7 333.387C164.057 333.719 164.208 334.112 164.311 337.587L164.407 340.82L170.251 340.748L176.095 340.675L176.03 337.572C175.994 335.865 175.775 333.593 175.542 332.523C175.188 330.897 174.921 330.359 173.911 329.236C171.426 326.474 168.387 325.397 162.73 325.273C160.576 325.225 158.223 325.307 157.501 325.454ZM254.588 325.578C251.002 326.543 247.572 329.18 246.307 331.945C245.103 334.577 244.967 336.464 244.961 350.66C244.955 365.257 245.01 365.882 246.57 369.057C249.004 374.011 255.163 376.654 260.473 375.025C261.833 374.607 263.64 373.299 264.332 372.232C264.66 371.725 265 371.309 265.088 371.308C265.176 371.306 265.468 372.033 265.738 372.924L266.229 374.543H270.236H274.243V361.454V348.366H266.818H259.393V352.144V355.922H260.785H262.177L262.013 360.487C261.831 365.554 261.512 366.851 260.377 367.136C259.365 367.39 258.833 367.2 258.206 366.36C257.652 365.616 257.635 365.305 257.542 353.406C257.489 346.701 257.533 339.708 257.639 337.867C257.813 334.853 257.895 334.456 258.465 333.887C259.233 333.119 259.933 333.084 260.78 333.77C261.401 334.272 261.42 334.416 261.512 339.167L261.605 344.048H267.924H274.243V341.41C274.243 333.619 272.746 330.059 268.35 327.401C265.626 325.754 263.141 325.153 259.147 325.176C257.346 325.186 255.411 325.357 254.588 325.578ZM286.488 325.694C280.4 327.289 278.022 330.894 278.03 338.516C278.033 341.219 278.526 343.95 279.343 345.796C280.21 347.755 282.339 349.727 287.055 352.937C292.902 356.916 293.837 357.756 294.354 359.498C294.924 361.416 294.892 364.707 294.291 365.904C293.763 366.958 292.781 367.427 291.679 367.151C290.462 366.845 290.174 365.678 290.174 361.053V356.991L284.301 357.064L278.429 357.137L278.494 360.915C278.626 368.507 279.832 371.163 284.235 373.563C286.67 374.889 289.124 375.418 292.874 375.425C299.045 375.436 303.962 373.195 305.666 369.596C307.465 365.796 307.208 356.718 305.19 352.746C304.021 350.447 300.806 347.74 294.764 343.968C291.472 341.913 290.605 341.083 290.201 339.596C289.08 335.477 291.114 331.74 293.291 333.916C293.918 334.543 293.954 334.746 293.954 337.694V340.81H299.894H305.834L305.826 338.449C305.807 333.014 304.908 330.031 302.758 328.27C301.317 327.091 298.934 326.024 296.654 325.54C294.08 324.993 288.86 325.072 286.488 325.694ZM184.504 326.845C184.418 327.327 183.005 337.923 181.364 350.39C179.722 362.858 178.311 373.392 178.228 373.801L178.077 374.543H184.673H191.27L191.582 371.102C191.754 369.209 191.894 367.266 191.893 366.784L191.891 365.907H194.148H196.406L196.568 367.594C196.657 368.522 196.812 370.465 196.913 371.912L197.095 374.543H203.538C209.049 374.543 209.981 374.485 209.981 374.143C209.981 373.546 202.983 326.697 202.835 326.305C202.737 326.044 200.655 325.968 193.684 325.968H184.661L184.504 326.845ZM212.141 350.25V374.543H217.404H222.665L222.736 363.816L222.807 353.089L225.721 362.837C227.325 368.198 228.758 373.025 228.907 373.564L229.177 374.543H234.7H240.222V350.255V325.968H234.96H229.698L229.628 336.549L229.557 347.13L226.16 336.617L222.762 326.103L217.452 326.029L212.141 325.956V350.25ZM310.695 350.255V374.543H317.04H323.385V350.255V325.968H317.04H310.695V350.255ZM326.268 326.145C326.167 326.245 326.085 328.432 326.085 331.005V335.683H329.865H333.645V355.113V374.543H339.991H346.336V355.113V335.683H350.122H353.909L353.835 330.893L353.761 326.103L340.106 326.033C332.595 325.994 326.368 326.045 326.268 326.145ZM49.1908 340.924C35.0828 347.785 23.5626 353.519 23.5907 353.666C23.6698 354.083 33.6566 374.642 33.8964 374.882C34.0141 374.999 36.425 373.986 39.2542 372.63L44.3984 370.164L42.4395 366.079C41.3622 363.832 40.4965 361.978 40.5157 361.959C40.5348 361.94 49.7848 357.463 61.0712 352.01C72.3576 346.557 81.6856 342.01 81.8003 341.906C82.1019 341.631 75.6126 328.391 75.1913 328.422C74.9991 328.436 63.2988 334.062 49.1908 340.924ZM429.209 332.543C426.183 333.359 423.346 336.011 420.628 340.567C419.104 343.121 411.138 358.62 411.138 359.03C411.138 359.228 462.715 384.884 462.844 384.75C463.364 384.209 473.33 363.564 473.893 361.859C475.331 357.51 474.844 354.273 472.38 351.81C470.632 350.063 467.76 348.451 455.43 342.294C434.891 332.038 433.292 331.443 429.209 332.543ZM194.577 341.687C194.758 343.802 195.14 347.835 195.424 350.648C195.708 353.462 195.941 356.103 195.941 356.518V357.272H193.899H191.858L192.035 355.315C192.132 354.239 192.625 350.021 193.131 345.942C193.637 341.863 194.051 338.371 194.051 338.183C194.051 337.995 194.095 337.842 194.148 337.842C194.202 337.842 194.395 339.572 194.577 341.687ZM431.287 347.391C431.863 347.597 438.373 350.751 445.754 354.399C456.708 359.815 459.406 361.256 460.435 362.241C461.609 363.366 461.683 363.516 461.511 364.432C461.297 365.57 460.815 366.717 460.55 366.717C460.367 366.717 427.032 350.283 426.821 350.089C426.638 349.921 427.415 348.614 428.189 347.784C428.991 346.925 429.723 346.832 431.287 347.391ZM77.2699 386.987C65.3905 397.393 55.7048 406.026 55.7458 406.169C55.9394 406.845 65.3481 417.203 65.6597 417.084C65.9594 416.969 106.763 381.39 108.377 379.837L108.97 379.265L104.102 373.733C101.425 370.69 99.1519 368.17 99.0515 368.133C98.9511 368.095 89.1492 376.58 77.2699 386.987ZM394.098 380.56C391.439 381.681 389.223 383.521 380.304 392.015L373.906 398.108L376.929 401.257C388.577 413.393 413.981 439.579 414.107 439.579C414.192 439.579 416.672 437.242 419.619 434.384L424.976 429.19L415.985 419.916C406.138 409.759 406.518 410.318 408.674 409.179C409.633 408.672 409.941 408.625 410.675 408.873C411.531 409.162 414.866 412.39 424.069 421.834L428.209 426.083L433.174 421.324C435.905 418.707 438.139 416.483 438.139 416.382C438.139 416.281 434.551 412.54 430.165 408.069C421.052 398.78 420.583 398.431 417.223 398.452C415.683 398.462 414.978 398.624 413.499 399.306L411.674 400.147L412.501 398.946C415.137 395.118 414.636 392.487 410.339 387.586C407.714 384.593 404.595 382.028 402.228 380.918C400.758 380.229 400.077 380.081 398.043 380.008C395.971 379.934 395.389 380.016 394.098 380.56ZM395.805 393.163C396.22 393.163 400.804 397.7 401.715 399.014C402.766 400.529 402.725 401.437 401.54 402.82L400.582 403.938L396.144 399.428L391.706 394.917L392.674 394.055C393.629 393.206 394.458 392.876 395.162 393.066C395.36 393.119 395.649 393.163 395.805 393.163ZM111.958 420.327C103.276 432.454 95.7253 443.001 95.179 443.764L94.1854 445.152L100.016 449.314C103.222 451.604 106.002 453.571 106.192 453.685C106.436 453.831 108.592 451.02 113.486 444.172C117.308 438.826 120.544 434.452 120.679 434.452C120.867 434.452 125.901 437.923 127.799 439.361C128.004 439.516 129.099 438.201 131.133 435.356C132.799 433.026 134.215 430.981 134.28 430.812C134.345 430.643 132.815 429.38 130.881 428.005C128.947 426.63 127.313 425.421 127.25 425.319C127.101 425.079 133.161 416.592 133.47 416.609C133.598 416.615 135.458 417.87 137.602 419.397C139.746 420.924 141.589 422.21 141.697 422.256C142.004 422.384 148.482 413.184 148.297 412.884C148.101 412.567 128.639 398.62 128.109 398.417C127.865 398.323 122.496 405.606 111.958 420.327ZM342.44 419.083C337.253 421.603 332.956 423.717 332.892 423.781C332.713 423.96 351 478.979 351.239 478.979C351.682 478.979 364.836 472.486 364.924 472.224C364.975 472.072 364.203 469.879 363.209 467.35C362.216 464.821 361.445 462.713 361.497 462.666C361.549 462.619 362.613 462.069 363.862 461.445C365.637 460.557 366.179 460.388 366.345 460.671C370.093 467.064 371.416 469.117 371.742 469.044C372.769 468.816 385.211 462.622 385.118 462.386C384.764 461.491 352.44 414.484 352.184 414.492C352.012 414.498 347.627 416.563 342.44 419.083ZM159.006 450.895C153.039 465.44 148.124 477.482 148.085 477.656C148.025 477.927 171.901 487.984 172.109 487.776C172.437 487.448 176.44 477.198 176.291 477.068C176.183 476.974 174.218 476.138 171.923 475.209C166.703 473.096 166.51 473.008 166.51 472.718C166.51 472.359 170.846 461.879 171.109 461.603C171.24 461.465 173.123 462.092 175.53 463.073C177.837 464.014 179.766 464.729 179.819 464.662C180.009 464.421 183.79 454.979 183.79 454.746C183.79 454.614 181.907 453.743 179.605 452.811C177.303 451.879 175.42 451.032 175.42 450.93C175.42 450.827 176.224 448.808 177.206 446.443C178.188 444.078 179.094 441.875 179.219 441.548C179.445 440.961 179.51 440.978 183.977 442.807C186.467 443.827 188.582 444.614 188.675 444.557C189.071 444.312 193.032 434.138 192.809 433.938C192.631 433.78 173.019 425.663 170.212 424.586C169.96 424.49 166.723 432.09 159.006 450.895ZM354.117 439.465C356.616 443.61 359.248 447.943 359.965 449.095C360.683 450.248 361.213 451.246 361.145 451.314C360.753 451.706 356.968 453.273 356.803 453.112C356.434 452.753 349.306 432.494 349.306 431.805C349.306 431.512 349.681 432.11 354.117 439.465ZM298.563 436.448C294.638 437.217 291.385 437.973 291.334 438.126C291.283 438.279 293.129 448.171 295.437 460.109C297.744 472.046 299.709 482.634 299.802 483.637C300.004 485.807 299.581 486.535 298.117 486.535C297.01 486.535 296.479 486.015 296.108 484.566C295.948 483.942 295.775 483.302 295.723 483.143C295.671 482.984 293.719 472.965 291.386 460.879C289.053 448.793 287.102 438.86 287.052 438.805C287.001 438.75 283.673 439.343 279.656 440.121C274.27 441.166 272.353 441.636 272.353 441.914C272.353 442.468 279.559 479.609 280.321 482.985C281.368 487.621 281.989 489.33 283.25 491.042C285.208 493.699 287.481 495.151 291.254 496.154C293.514 496.754 298.464 496.752 301.185 496.15C308.536 494.522 312.969 490.687 314.361 484.753C315.057 481.784 315.116 482.175 309.872 455.01C307.8 444.276 306.104 435.381 306.104 435.243C306.104 435.105 306.013 435.004 305.902 435.02C305.791 435.036 302.488 435.678 298.563 436.448ZM223.887 440.247C219.374 441.234 215.015 444.576 213.663 448.085C213.056 449.66 212.759 450.983 212.301 454.152C211.594 459.044 210.175 478.32 210.145 483.432C210.119 487.834 210.174 488.457 210.733 490.073C211.868 493.355 213.93 495.881 216.946 497.688C219.469 499.2 221.079 499.623 224.297 499.623C226.964 499.623 227.249 499.569 228.943 498.736C230.08 498.176 231.176 497.367 231.907 496.546L233.067 495.244L233.607 497.299L234.147 499.354L238.823 499.718C241.394 499.919 243.536 500.04 243.582 499.988C243.672 499.887 245.907 470.596 245.898 469.646C245.893 469.1 245.626 469.064 237.252 468.454C232.499 468.109 228.564 467.876 228.508 467.938C228.325 468.137 227.749 476.318 227.907 476.476C227.991 476.56 228.643 476.684 229.355 476.753L230.65 476.877L230.306 481.369C229.731 488.857 229.295 490.043 227.113 490.043C225.772 490.043 225.271 489.539 224.97 487.884C224.78 486.836 227.105 455.289 227.573 452.567C227.744 451.573 228.083 450.633 228.375 450.34C229.078 449.638 230.614 449.676 231.353 450.415C231.92 450.981 231.929 451.105 231.722 455.61C231.605 458.147 231.496 460.769 231.479 461.435L231.447 462.645L238.872 463.208C242.956 463.517 246.348 463.732 246.409 463.685C246.712 463.452 246.744 453.836 246.447 452.081C245.4 445.873 240.104 441.389 232.334 440.128C230.036 439.756 225.863 439.814 223.887 440.247Z" fill="#FF0000"/>
</svg>
