<svg width="200" height="200" viewBox="0 0 200 200" fill="none" xmlns="http://www.w3.org/2000/svg">
<rect width="200" height="200" rx="100" fill="#84C7C2"/>
<path d="M109.943 56.3807C109.243 56.6807 108.193 57.3307 107.593 57.9307C106.993 58.4807 106.243 58.7807 105.943 58.5807C105.643 58.3807 104.993 58.7307 104.443 59.3307C103.943 59.9307 103.343 60.3807 103.093 60.3807C102.893 60.3807 101.293 61.7307 99.6427 63.3307C97.9427 64.9807 96.3427 66.3307 96.1427 66.3307C95.8927 66.3307 94.8427 67.1307 93.7927 68.0807C92.7427 69.0307 91.4427 69.8307 90.9427 69.8307C90.4427 69.8307 89.8927 70.0307 89.7427 70.2307C89.6427 70.4307 87.7927 70.6807 85.6927 70.7307C83.5927 70.7807 81.1427 71.1307 80.2427 71.5307C79.2427 71.9307 77.2427 72.1807 75.3927 72.1307C72.2927 71.9807 71.3427 71.7807 69.0927 70.7307C68.4927 70.4307 67.5427 70.3307 66.9927 70.4807C66.4427 70.6307 65.6927 70.4307 65.3927 70.0307C65.0427 69.6307 64.3927 69.4307 63.8927 69.5807C63.4427 69.7307 62.8927 69.6307 62.6927 69.3307C62.2427 68.5807 59.8927 67.6307 58.9927 67.7807C57.7427 67.9807 54.0427 66.7307 53.7427 66.0307C53.5427 65.4807 53.1927 65.4807 52.0927 65.8807C50.8927 66.3307 50.5927 66.2307 49.8927 65.3807C48.9927 64.2807 47.9427 63.9807 47.9427 64.7807C47.9427 65.0807 48.1927 65.4307 48.4427 65.5807C48.7427 65.7307 48.9427 66.1307 48.9427 66.4307C48.9427 66.7807 48.6927 66.7807 48.3427 66.4807C47.9927 66.2307 47.0927 66.0307 46.3427 66.0807C45.5927 66.0807 45.0427 65.8807 45.0927 65.6307C45.1927 65.1807 44.5927 65.0807 42.8927 65.2807C42.4927 65.3307 42.4927 65.5807 42.9427 66.0807C43.4427 66.7307 43.3927 66.8307 42.4427 66.8307C41.7927 66.8307 40.4927 67.4307 39.5427 68.1807C37.8427 69.4307 37.7927 69.4807 37.0927 68.5307C36.7427 68.0307 36.5427 67.3307 36.6927 66.9807C37.5427 64.8307 37.5927 64.8807 35.3427 62.8807C34.5927 62.2307 33.7427 61.8807 33.4427 62.0807C33.0927 62.2807 31.9427 62.4807 30.8927 62.5307C28.5927 62.6807 28.4927 62.7307 28.1427 64.8807C27.9427 66.4307 28.0927 66.7307 29.9427 67.9807C31.0427 68.7807 31.9427 69.6807 31.9427 70.0307C31.9427 70.9307 29.9927 71.3807 28.8427 70.7807C28.2927 70.4807 27.7427 70.3807 27.5927 70.5307C27.0427 71.0807 29.0427 75.3807 30.8927 77.7307C32.6427 79.8807 33.8427 82.1307 34.6427 84.4807C34.7927 84.9307 35.6927 85.6807 36.6427 86.1307C37.6927 86.6307 38.2427 87.2307 38.0927 87.6307C37.9427 87.9807 39.2427 89.6807 41.0427 91.4307C42.7927 93.1807 44.6927 95.2307 45.2927 96.0807C46.0927 97.2307 46.4927 97.4307 46.9427 96.9807C47.3927 96.5807 47.9427 96.5307 48.8427 96.8807C50.0427 97.3307 52.7927 96.7807 57.0427 95.2307C58.7427 94.6307 62.1927 94.8307 64.3927 95.7307C65.2927 96.0807 66.5427 96.3307 67.1427 96.2307C67.7427 96.1807 69.2427 96.6807 70.4427 97.4307C71.6927 98.1307 74.0427 99.1307 75.6927 99.5807C77.3427 100.031 79.3927 100.731 80.2927 101.131C81.1427 101.531 82.3427 101.831 82.8927 101.831C83.4927 101.831 84.7427 102.631 85.7427 103.581C86.6927 104.531 88.0427 105.481 88.6927 105.631C89.3927 105.781 89.9427 106.231 89.9427 106.581C89.9427 106.981 90.3927 107.381 90.9427 107.581C93.4427 108.381 102.293 116.831 103.593 119.681C103.843 120.331 104.393 120.831 104.743 120.831C105.793 120.831 108.843 123.031 109.093 123.981C109.243 124.481 109.793 125.031 110.343 125.181C111.493 125.481 112.443 127.331 112.443 129.381C112.443 130.481 112.143 130.981 111.193 131.431C109.543 132.181 109.593 132.481 111.593 133.231L113.193 133.881L112.093 134.781C111.493 135.281 109.943 135.881 108.693 136.081C106.993 136.331 106.443 136.581 106.643 137.081C106.793 137.481 106.493 138.081 106.043 138.431C104.943 139.231 103.443 141.331 103.443 142.081C103.443 142.881 107.293 143.631 110.443 143.481C115.043 143.281 116.893 142.781 118.093 141.481C118.693 140.831 119.593 139.831 120.143 139.331C121.043 138.431 121.043 138.381 119.993 136.931C119.443 136.081 118.943 134.931 118.943 134.381C118.943 133.781 118.643 133.331 118.143 133.331C117.393 133.331 117.443 133.831 118.293 136.181C118.643 137.031 118.193 136.981 116.293 135.981C115.393 135.531 114.543 135.181 114.343 135.231C114.093 135.281 113.943 134.931 113.943 134.431C113.943 133.931 114.093 133.331 114.343 133.131C114.543 132.931 114.693 132.131 114.693 131.431C114.693 130.181 114.843 130.081 117.043 129.981C118.943 129.881 119.343 130.031 119.093 130.581C118.943 130.981 119.093 131.331 119.393 131.331C119.743 131.331 120.193 130.681 120.493 129.931C120.743 129.181 121.643 128.131 122.443 127.631C123.993 126.731 124.243 125.731 123.493 123.681C123.043 122.531 123.243 122.281 125.093 120.981C127.493 119.381 129.393 117.381 129.443 116.431C129.443 116.131 129.843 115.831 130.343 115.831C130.843 115.831 131.743 115.331 132.343 114.681C133.343 113.631 133.893 113.531 138.493 113.431C142.893 113.381 143.743 113.231 144.693 112.331C145.243 111.781 146.193 111.331 146.743 111.331C147.243 111.331 147.993 110.881 148.343 110.331C148.743 109.681 149.493 109.331 150.443 109.331C152.043 109.331 152.243 108.881 151.443 107.281C150.993 106.531 151.093 106.231 151.693 106.031C152.093 105.881 152.443 105.431 152.443 105.031C152.443 104.131 152.943 104.181 154.143 105.081C154.693 105.481 155.643 105.831 156.243 105.831C156.843 105.831 157.443 106.131 157.593 106.531C158.043 107.681 160.493 106.731 161.393 105.081C164.093 100.081 165.043 98.8307 166.093 98.8307C167.943 98.8307 170.043 96.6807 171.093 93.7807C172.293 90.3807 172.393 88.7807 171.443 88.3307C171.043 88.1307 169.793 87.5307 168.693 87.0307C167.593 86.5307 166.393 85.7807 165.993 85.4307C165.593 85.0307 164.743 84.5307 164.093 84.2807C163.443 84.0307 162.743 83.3307 162.493 82.7307C162.243 82.0807 161.543 81.1307 160.943 80.5807C160.343 80.0307 159.493 78.9307 159.093 78.0807C157.993 75.9807 156.393 74.3307 155.393 74.3307C154.943 74.3307 154.443 74.0307 154.293 73.6307C154.143 73.2807 153.143 72.5307 152.093 72.0307C151.043 71.4807 149.293 70.4807 148.193 69.7307C143.493 66.7307 136.543 63.8807 135.443 64.5807C135.193 64.7307 134.843 64.6307 134.693 64.3307C133.893 63.0807 130.393 61.3307 129.243 61.6307C128.593 61.7807 127.893 61.6807 127.743 61.3807C127.543 61.0807 126.893 60.8307 126.243 60.8307C125.643 60.8307 124.943 60.6307 124.693 60.3807C123.893 59.7307 118.143 58.2807 117.343 58.5807C116.943 58.7307 116.293 58.5307 115.943 58.0807C115.343 57.3307 112.243 55.7807 111.493 55.8807C111.343 55.8807 110.643 56.1307 109.943 56.3807Z" fill="#F0F8F8"/>
<path d="M36.6929 61.8307C36.1429 62.7307 37.4929 63.8307 39.1929 63.8307C40.8429 63.8307 42.2429 62.7807 41.7429 61.8807C41.5429 61.5807 40.8429 61.5807 39.9429 61.8307C39.0429 62.0807 38.3429 62.0807 38.1929 61.7807C37.7929 61.1807 37.0929 61.2307 36.6929 61.8307Z" fill="#F0F8F8"/>
<path d="M143.093 123.231C142.943 123.681 142.443 124.481 142.093 124.931C141.243 125.881 141.693 127.881 142.643 127.531C142.993 127.381 143.593 127.631 143.943 128.081C144.293 128.481 144.343 128.831 144.093 128.831C143.793 128.831 143.593 129.731 143.643 130.831C143.693 132.681 143.793 132.831 145.043 132.831C145.943 132.831 146.693 133.231 147.243 134.081C147.693 134.781 148.343 135.331 148.693 135.331C149.043 135.331 149.593 135.631 149.893 135.981C150.193 136.381 151.393 136.931 152.543 137.281C153.693 137.631 155.343 138.481 156.193 139.131C157.093 139.781 158.243 140.331 158.793 140.331C159.943 140.331 161.443 138.831 161.443 137.681C161.443 137.231 161.893 136.631 162.443 136.331C163.693 135.681 163.893 132.331 162.693 132.331C162.293 132.331 161.943 132.031 161.943 131.631C161.943 131.281 161.643 130.681 161.243 130.381C160.843 130.031 159.893 128.581 159.193 127.181C157.393 123.731 156.943 123.231 155.993 123.631C155.543 123.831 153.543 124.031 151.493 124.031C147.643 124.131 147.643 124.131 145.543 127.131C145.193 127.681 145.043 127.781 145.243 127.381C145.493 126.831 145.393 126.731 144.793 126.981C144.293 127.131 143.943 127.081 143.943 126.831C143.943 126.531 144.143 126.331 144.343 126.331C144.993 126.331 144.943 124.131 144.293 123.681C143.943 123.431 144.293 123.381 145.193 123.581C146.293 123.831 146.543 123.731 146.143 123.331C145.193 122.381 143.393 122.331 143.093 123.231Z" fill="#F0F8F8"/>
</svg>
